<mxfile modified="2022-05-20T01:36:26.461Z" host="app.diagrams.net" agent="5.0 (Windows NT 10.0; Win64; x64) AppleWebKit/537.36 (KHTML, like Gecko) Chrome/101.0.4951.54 Safari/537.36" etag="W108o9XuFC4Udu76IKiz" compressed="false" version="18.0.8" type="google">
  <diagram id="KdnCMIIGtqhUIMar-mkD" name="Sequence/System Logical Module/Credentials/SignIn">
    <mxGraphModel grid="1" page="1" gridSize="10" guides="1" tooltips="1" connect="1" arrows="1" fold="1" pageScale="1" pageWidth="827" pageHeight="1169" math="0" shadow="0">
      <root>
        <mxCell id="fir-WizANqRblT44jurp-0" />
        <mxCell id="fir-WizANqRblT44jurp-4" value="Diagram/BPMN" parent="fir-WizANqRblT44jurp-0" />
        <mxCell id="Oj6QqCunI4aw5Zhw3vnf-0" value="\" style="edgeStyle=orthogonalEdgeStyle;rounded=0;jumpStyle=arc;orthogonalLoop=1;jettySize=auto;html=1;entryX=0;entryY=0.5;entryDx=0;entryDy=0;fontSize=12;" edge="1" parent="fir-WizANqRblT44jurp-4" source="Oj6QqCunI4aw5Zhw3vnf-1" target="Oj6QqCunI4aw5Zhw3vnf-4">
          <mxGeometry relative="1" as="geometry">
            <Array as="points" />
          </mxGeometry>
        </mxCell>
        <mxCell id="Oj6QqCunI4aw5Zhw3vnf-1" value="start" style="shape=mxgraph.bpmn.shape;html=1;verticalLabelPosition=bottom;labelBackgroundColor=#ffffff;verticalAlign=top;align=center;perimeter=ellipsePerimeter;outlineConnect=0;outline=standard;symbol=general;fontSize=12;" vertex="1" parent="fir-WizANqRblT44jurp-4">
          <mxGeometry x="120" y="221" width="20" height="18" as="geometry" />
        </mxCell>
        <mxCell id="Oj6QqCunI4aw5Zhw3vnf-2" value="end" style="shape=mxgraph.bpmn.shape;html=1;verticalLabelPosition=middle;labelBackgroundColor=#ffffff;verticalAlign=middle;align=right;perimeter=ellipsePerimeter;outlineConnect=0;outline=end;symbol=general;fontSize=12;labelPosition=left;spacing=5;" vertex="1" parent="fir-WizANqRblT44jurp-4">
          <mxGeometry x="200" y="990" width="20" height="20" as="geometry" />
        </mxCell>
        <mxCell id="Oj6QqCunI4aw5Zhw3vnf-3" value="User" style="swimlane;fontSize=12;fontColor=#999999;strokeColor=#B3B3B3;dashed=1;expand=1;collapsible=0;" vertex="1" parent="fir-WizANqRblT44jurp-4">
          <mxGeometry x="160" y="180" width="120" height="810" as="geometry">
            <mxRectangle x="40" y="90" width="160" height="23" as="alternateBounds" />
          </mxGeometry>
        </mxCell>
        <mxCell id="Oj6QqCunI4aw5Zhw3vnf-4" value="&lt;p style=&quot;line-height: 100%; font-size: 12px;&quot;&gt;Action SignIn&lt;/p&gt;" style="shape=ext;rounded=1;html=1;whiteSpace=wrap;fontSize=12;" vertex="1" parent="Oj6QqCunI4aw5Zhw3vnf-3">
          <mxGeometry x="20" y="30" width="80" height="40" as="geometry" />
        </mxCell>
        <mxCell id="ivu_eYGlAMVPZVmaV1m3-8" value="Input&amp;nbsp; New User Details" style="shape=ext;rounded=1;html=1;whiteSpace=wrap;fontSize=12;" vertex="1" parent="Oj6QqCunI4aw5Zhw3vnf-3">
          <mxGeometry x="20" y="170" width="80" height="40" as="geometry" />
        </mxCell>
        <mxCell id="ivu_eYGlAMVPZVmaV1m3-15" value="&lt;p style=&quot;line-height: 100%; font-size: 12px;&quot;&gt;Input&amp;nbsp; New User Credentials&lt;/p&gt;" style="shape=ext;rounded=1;html=1;whiteSpace=wrap;fontSize=12;" vertex="1" parent="Oj6QqCunI4aw5Zhw3vnf-3">
          <mxGeometry x="20" y="240" width="80" height="40" as="geometry" />
        </mxCell>
        <mxCell id="ivu_eYGlAMVPZVmaV1m3-23" value="&lt;p style=&quot;line-height: 100%; font-size: 12px;&quot;&gt;Enter Credentials&lt;/p&gt;" style="shape=ext;rounded=1;html=1;whiteSpace=wrap;fontSize=12;" vertex="1" parent="Oj6QqCunI4aw5Zhw3vnf-3">
          <mxGeometry x="20" y="390" width="80" height="40" as="geometry" />
        </mxCell>
        <mxCell id="ivu_eYGlAMVPZVmaV1m3-13" value="&lt;font style=&quot;font-size: 10px&quot;&gt;Accept Permissions &lt;br&gt;Requested by&lt;br&gt;System?&lt;/font&gt;" style="shape=mxgraph.bpmn.shape;html=1;verticalLabelPosition=bottom;labelBackgroundColor=#ffffff;verticalAlign=top;align=center;perimeter=rhombusPerimeter;background=gateway;outlineConnect=0;outline=none;symbol=exclusiveGw;fontSize=12;spacing=-4;" vertex="1" parent="Oj6QqCunI4aw5Zhw3vnf-3">
          <mxGeometry x="40" y="460" width="40" height="40" as="geometry" />
        </mxCell>
        <mxCell id="ivu_eYGlAMVPZVmaV1m3-31" value="Retry?" style="shape=mxgraph.bpmn.shape;html=1;verticalLabelPosition=bottom;labelBackgroundColor=#ffffff;verticalAlign=top;align=center;perimeter=rhombusPerimeter;background=gateway;outlineConnect=0;outline=none;symbol=exclusiveGw;fontSize=12;spacing=-4;fillColor=#ffffff;" vertex="1" parent="Oj6QqCunI4aw5Zhw3vnf-3">
          <mxGeometry x="40" y="550" width="40" height="40" as="geometry" />
        </mxCell>
        <mxCell id="ivu_eYGlAMVPZVmaV1m3-9" style="edgeStyle=orthogonalEdgeStyle;rounded=0;orthogonalLoop=1;jettySize=auto;html=1;entryX=0.5;entryY=0;entryDx=0;entryDy=0;fontSize=12;" edge="1" parent="Oj6QqCunI4aw5Zhw3vnf-3" target="ivu_eYGlAMVPZVmaV1m3-8">
          <mxGeometry relative="1" as="geometry">
            <mxPoint x="60" y="150" as="sourcePoint" />
          </mxGeometry>
        </mxCell>
        <mxCell id="ivu_eYGlAMVPZVmaV1m3-54" style="edgeStyle=orthogonalEdgeStyle;rounded=0;orthogonalLoop=1;jettySize=auto;html=1;entryX=0.5;entryY=0;entryDx=0;entryDy=0;fontSize=12;" edge="1" parent="Oj6QqCunI4aw5Zhw3vnf-3" source="ivu_eYGlAMVPZVmaV1m3-51" target="ivu_eYGlAMVPZVmaV1m3-23">
          <mxGeometry relative="1" as="geometry" />
        </mxCell>
        <mxCell id="ivu_eYGlAMVPZVmaV1m3-51" value="Remember?" style="shape=mxgraph.bpmn.shape;html=1;verticalLabelPosition=bottom;labelBackgroundColor=#ffffff;verticalAlign=top;align=center;perimeter=rhombusPerimeter;background=gateway;outlineConnect=0;outline=none;symbol=exclusiveGw;fontSize=12;spacing=-4;" vertex="1" parent="Oj6QqCunI4aw5Zhw3vnf-3">
          <mxGeometry x="40" y="310" width="40" height="40" as="geometry" />
        </mxCell>
        <mxCell id="ivu_eYGlAMVPZVmaV1m3-86" value="&lt;p style=&quot;line-height: 100%; font-size: 12px;&quot;&gt;Input&amp;nbsp; New User Details&lt;/p&gt;" style="shape=ext;rounded=1;html=1;whiteSpace=wrap;fontSize=12;" vertex="1" parent="Oj6QqCunI4aw5Zhw3vnf-3">
          <mxGeometry x="20" y="170" width="80" height="40" as="geometry" />
        </mxCell>
        <mxCell id="Oj6QqCunI4aw5Zhw3vnf-7" value="System" style="swimlane;fontSize=12;fontColor=#999999;strokeColor=#B3B3B3;dashed=1;expand=1;collapsible=0;spacing=3;spacingTop=7;labelPosition=center;verticalLabelPosition=middle;align=center;verticalAlign=middle;" vertex="1" parent="fir-WizANqRblT44jurp-4">
          <mxGeometry x="280" y="180" width="120" height="810" as="geometry">
            <mxRectangle x="200" y="90" width="100" height="23" as="alternateBounds" />
          </mxGeometry>
        </mxCell>
        <mxCell id="Oj6QqCunI4aw5Zhw3vnf-6" value="Signed In Already?" style="shape=mxgraph.bpmn.shape;html=1;verticalLabelPosition=bottom;labelBackgroundColor=#ffffff;verticalAlign=top;align=center;perimeter=rhombusPerimeter;background=gateway;outlineConnect=0;outline=none;symbol=exclusiveGw;fontSize=12;spacing=-4;" vertex="1" parent="Oj6QqCunI4aw5Zhw3vnf-7">
          <mxGeometry x="40" y="30" width="40" height="40" as="geometry" />
        </mxCell>
        <mxCell id="ivu_eYGlAMVPZVmaV1m3-6" value="&lt;p style=&quot;line-height: 100%; font-size: 12px;&quot;&gt;Redirect to IdP&lt;/p&gt;" style="shape=ext;rounded=1;html=1;whiteSpace=wrap;fontSize=12;" vertex="1" parent="Oj6QqCunI4aw5Zhw3vnf-7">
          <mxGeometry x="20" y="100" width="80" height="40" as="geometry" />
        </mxCell>
        <mxCell id="ivu_eYGlAMVPZVmaV1m3-3" value="No" style="edgeStyle=orthogonalEdgeStyle;rounded=0;orthogonalLoop=1;jettySize=auto;html=1;entryX=0.5;entryY=0;entryDx=0;entryDy=0;exitX=0.5;exitY=1;exitDx=0;exitDy=0;fontSize=12;" edge="1" parent="Oj6QqCunI4aw5Zhw3vnf-7" source="Oj6QqCunI4aw5Zhw3vnf-6" target="ivu_eYGlAMVPZVmaV1m3-6">
          <mxGeometry relative="1" as="geometry">
            <Array as="points">
              <mxPoint x="60" y="90" />
              <mxPoint x="60" y="90" />
            </Array>
          </mxGeometry>
        </mxCell>
        <mxCell id="ivu_eYGlAMVPZVmaV1m3-65" value="&lt;p style=&quot;line-height: 70%; font-size: 12px;&quot;&gt;New Sys &lt;br style=&quot;font-size: 12px;&quot;&gt;Member?&lt;/p&gt;" style="shape=mxgraph.bpmn.shape;html=1;verticalLabelPosition=bottom;labelBackgroundColor=none;verticalAlign=top;align=center;perimeter=rhombusPerimeter;background=gateway;outlineConnect=0;outline=none;symbol=exclusiveGw;fontSize=12;spacing=-12;" vertex="1" parent="Oj6QqCunI4aw5Zhw3vnf-7">
          <mxGeometry x="10" y="640" width="40" height="40" as="geometry" />
        </mxCell>
        <mxCell id="ivu_eYGlAMVPZVmaV1m3-62" value="&lt;p style=&quot;line-height: 70%; font-size: 12px;&quot;&gt;Has&lt;br style=&quot;font-size: 12px;&quot;&gt;Permissions?&lt;/p&gt;" style="shape=mxgraph.bpmn.shape;html=1;verticalLabelPosition=bottom;labelBackgroundColor=none;verticalAlign=top;align=center;perimeter=rhombusPerimeter;background=gateway;outlineConnect=0;outline=none;symbol=exclusiveGw;fontSize=12;spacing=-12;labelPosition=center;" vertex="1" parent="Oj6QqCunI4aw5Zhw3vnf-7">
          <mxGeometry x="70" y="640" width="40" height="40" as="geometry" />
        </mxCell>
        <mxCell id="ivu_eYGlAMVPZVmaV1m3-68" style="edgeStyle=orthogonalEdgeStyle;rounded=0;jumpStyle=arc;orthogonalLoop=1;jettySize=auto;html=1;entryX=0.75;entryY=0.25;entryDx=0;entryDy=0;endArrow=classic;endFill=1;strokeColor=#666666;exitX=0.25;exitY=0.25;exitDx=0;exitDy=0;exitPerimeter=0;entryPerimeter=0;fontSize=12;" edge="1" parent="Oj6QqCunI4aw5Zhw3vnf-7" source="ivu_eYGlAMVPZVmaV1m3-62" target="ivu_eYGlAMVPZVmaV1m3-65">
          <mxGeometry relative="1" as="geometry">
            <Array as="points" />
          </mxGeometry>
        </mxCell>
        <mxCell id="ivu_eYGlAMVPZVmaV1m3-44" value="&lt;p style=&quot;line-height: 90%; font-size: 12px;&quot;&gt;Retrieve/Store &lt;u style=&quot;font-size: 12px;&quot;&gt;Permitted&lt;/u&gt; IdP Info&lt;/p&gt;" style="shape=ext;rounded=1;html=1;whiteSpace=wrap;fontSize=12;dashed=1;" vertex="1" parent="Oj6QqCunI4aw5Zhw3vnf-7">
          <mxGeometry x="10" y="710" width="80" height="30" as="geometry" />
        </mxCell>
        <mxCell id="ivu_eYGlAMVPZVmaV1m3-48" style="edgeStyle=orthogonalEdgeStyle;rounded=0;orthogonalLoop=1;jettySize=auto;html=1;exitX=0;exitY=0.5;exitDx=0;exitDy=0;entryX=0;entryY=0.5;entryDx=0;entryDy=0;fontSize=12;" edge="1" parent="Oj6QqCunI4aw5Zhw3vnf-7" source="ivu_eYGlAMVPZVmaV1m3-65" target="ivu_eYGlAMVPZVmaV1m3-44">
          <mxGeometry relative="1" as="geometry">
            <mxPoint x="60" y="700" as="targetPoint" />
            <Array as="points">
              <mxPoint x="-10" y="660" />
              <mxPoint x="-10" y="725" />
            </Array>
          </mxGeometry>
        </mxCell>
        <mxCell id="ivu_eYGlAMVPZVmaV1m3-45" value="&lt;p style=&quot;line-height: 90%; font-size: 12px;&quot;&gt;&lt;font style=&quot;font-size: 12px;&quot;&gt;Create System SessionToken&lt;/font&gt;&lt;/p&gt;" style="shape=ext;rounded=1;html=1;whiteSpace=wrap;fontSize=12;" vertex="1" parent="Oj6QqCunI4aw5Zhw3vnf-7">
          <mxGeometry x="10" y="770" width="80" height="30" as="geometry" />
        </mxCell>
        <mxCell id="ivu_eYGlAMVPZVmaV1m3-63" value="Yes" style="edgeStyle=orthogonalEdgeStyle;rounded=0;jumpStyle=arc;orthogonalLoop=1;jettySize=auto;html=1;entryX=0.5;entryY=0;entryDx=0;entryDy=0;endArrow=classic;endFill=1;strokeColor=#666666;exitX=0.5;exitY=1;exitDx=0;exitDy=0;fontSize=12;" edge="1" parent="Oj6QqCunI4aw5Zhw3vnf-7" source="ivu_eYGlAMVPZVmaV1m3-44" target="ivu_eYGlAMVPZVmaV1m3-45">
          <mxGeometry relative="1" as="geometry">
            <Array as="points">
              <mxPoint x="50" y="760" />
              <mxPoint x="50" y="760" />
            </Array>
          </mxGeometry>
        </mxCell>
        <mxCell id="Oj6QqCunI4aw5Zhw3vnf-8" value="3rd Party Id Provider (IdP)" style="swimlane;fontSize=12;fontColor=#999999;strokeColor=#B3B3B3;expand=1;collapsible=0;dashed=1;verticalAlign=middle;spacing=3;spacingTop=7;" vertex="1" parent="fir-WizANqRblT44jurp-4">
          <mxGeometry x="400" y="180" width="120" height="810" as="geometry">
            <mxRectangle x="300" y="90" width="120" height="23" as="alternateBounds" />
          </mxGeometry>
        </mxCell>
        <mxCell id="ivu_eYGlAMVPZVmaV1m3-11" value="&lt;p style=&quot;line-height: 100%; font-size: 12px;&quot;&gt;Create IdP Member&lt;/p&gt;" style="shape=ext;rounded=1;html=1;whiteSpace=wrap;fontSize=12;" vertex="1" parent="Oj6QqCunI4aw5Zhw3vnf-8">
          <mxGeometry x="20" y="280" width="80" height="40" as="geometry" />
        </mxCell>
        <mxCell id="ivu_eYGlAMVPZVmaV1m3-39" value="&lt;p style=&quot;line-height: 100%; font-size: 12px;&quot;&gt;Redirect to System&lt;/p&gt;" style="shape=ext;rounded=1;html=1;whiteSpace=wrap;fontSize=12;" vertex="1" parent="Oj6QqCunI4aw5Zhw3vnf-8">
          <mxGeometry x="20" y="620" width="80" height="40" as="geometry" />
        </mxCell>
        <mxCell id="ivu_eYGlAMVPZVmaV1m3-34" value="&lt;p style=&quot;line-height: 100%; font-size: 12px;&quot;&gt;Redirect to&lt;br style=&quot;font-size: 12px;&quot;&gt;Sys error page&lt;/p&gt;" style="shape=ext;rounded=1;html=1;whiteSpace=wrap;fontSize=12;" vertex="1" parent="Oj6QqCunI4aw5Zhw3vnf-8">
          <mxGeometry x="20" y="570" width="80" height="40" as="geometry" />
        </mxCell>
        <mxCell id="ivu_eYGlAMVPZVmaV1m3-37" value="&lt;p style=&quot;line-height: 100%; font-size: 12px;&quot;&gt;Redirect to Permissions page&lt;/p&gt;" style="shape=ext;rounded=1;html=1;whiteSpace=wrap;fontSize=12;" vertex="1" parent="Oj6QqCunI4aw5Zhw3vnf-8">
          <mxGeometry x="20" y="520" width="80" height="40" as="geometry" />
        </mxCell>
        <mxCell id="ivu_eYGlAMVPZVmaV1m3-30" value="&lt;p style=&quot;line-height: 100%; font-size: 12px;&quot;&gt;Redirect to&lt;br style=&quot;font-size: 12px;&quot;&gt;Sys options page&lt;/p&gt;" style="shape=ext;rounded=1;html=1;whiteSpace=wrap;fontSize=12;dashed=1;" vertex="1" parent="Oj6QqCunI4aw5Zhw3vnf-8">
          <mxGeometry x="20" y="460" width="80" height="40" as="geometry" />
        </mxCell>
        <mxCell id="ivu_eYGlAMVPZVmaV1m3-24" value="Validate" style="shape=mxgraph.bpmn.shape;html=1;verticalLabelPosition=bottom;labelBackgroundColor=#ffffff;verticalAlign=top;align=center;perimeter=rhombusPerimeter;background=gateway;outlineConnect=0;outline=none;symbol=exclusiveGw;fontSize=12;spacing=-4;" vertex="1" parent="Oj6QqCunI4aw5Zhw3vnf-8">
          <mxGeometry x="20" y="380" width="40" height="40" as="geometry" />
        </mxCell>
        <mxCell id="ivu_eYGlAMVPZVmaV1m3-56" value="Issue Reset Token &amp;amp; Device Msg" style="shape=ext;rounded=1;html=1;whiteSpace=wrap;fontSize=12;" vertex="1" parent="Oj6QqCunI4aw5Zhw3vnf-8">
          <mxGeometry x="20" y="330" width="80" height="40" as="geometry" />
        </mxCell>
        <mxCell id="ivu_eYGlAMVPZVmaV1m3-85" value="&lt;p style=&quot;line-height: 100%; font-size: 12px;&quot;&gt;Issue Reset Token &amp;amp; Device Msg&lt;/p&gt;" style="shape=ext;rounded=1;html=1;whiteSpace=wrap;fontSize=12;" vertex="1" parent="Oj6QqCunI4aw5Zhw3vnf-8">
          <mxGeometry x="20" y="330" width="80" height="40" as="geometry" />
        </mxCell>
        <mxCell id="ivu_eYGlAMVPZVmaV1m3-20" value="Validate" style="shape=mxgraph.bpmn.shape;html=1;verticalLabelPosition=bottom;labelBackgroundColor=#ffffff;verticalAlign=top;align=center;perimeter=rhombusPerimeter;background=gateway;outlineConnect=0;outline=none;symbol=exclusiveGw;fontSize=12;spacing=-4;" vertex="1" parent="Oj6QqCunI4aw5Zhw3vnf-8">
          <mxGeometry x="14" y="230" width="40" height="40" as="geometry" />
        </mxCell>
        <mxCell id="ivu_eYGlAMVPZVmaV1m3-12" style="edgeStyle=orthogonalEdgeStyle;rounded=0;orthogonalLoop=1;jettySize=auto;html=1;entryX=0;entryY=0.5;entryDx=0;entryDy=0;exitX=0.5;exitY=1;exitDx=0;exitDy=0;fontSize=12;" edge="1" parent="Oj6QqCunI4aw5Zhw3vnf-8" source="ivu_eYGlAMVPZVmaV1m3-20" target="ivu_eYGlAMVPZVmaV1m3-11">
          <mxGeometry relative="1" as="geometry">
            <mxPoint x="-180" y="280" as="sourcePoint" />
            <mxPoint x="20" y="320" as="targetPoint" />
            <Array as="points">
              <mxPoint y="270" />
              <mxPoint y="300" />
            </Array>
          </mxGeometry>
        </mxCell>
        <mxCell id="ivu_eYGlAMVPZVmaV1m3-4" style="edgeStyle=orthogonalEdgeStyle;rounded=0;orthogonalLoop=1;jettySize=auto;html=1;entryX=0;entryY=0.5;entryDx=0;entryDy=0;fontSize=12;" edge="1" parent="fir-WizANqRblT44jurp-4" source="Oj6QqCunI4aw5Zhw3vnf-4" target="Oj6QqCunI4aw5Zhw3vnf-6">
          <mxGeometry relative="1" as="geometry" />
        </mxCell>
        <mxCell id="ivu_eYGlAMVPZVmaV1m3-7" style="edgeStyle=orthogonalEdgeStyle;rounded=0;orthogonalLoop=1;jettySize=auto;html=1;exitX=0;exitY=0.25;exitDx=0;exitDy=0;fontSize=12;" edge="1" parent="fir-WizANqRblT44jurp-4" source="ivu_eYGlAMVPZVmaV1m3-1">
          <mxGeometry relative="1" as="geometry">
            <mxPoint x="220" y="300" as="targetPoint" />
            <mxPoint x="300" y="280" as="sourcePoint" />
            <Array as="points">
              <mxPoint x="220" y="290" />
            </Array>
          </mxGeometry>
        </mxCell>
        <mxCell id="ivu_eYGlAMVPZVmaV1m3-14" style="edgeStyle=orthogonalEdgeStyle;rounded=0;orthogonalLoop=1;jettySize=auto;html=1;entryX=0.5;entryY=0;entryDx=0;entryDy=0;exitX=1;exitY=0.5;exitDx=0;exitDy=0;entryPerimeter=0;fontSize=12;" edge="1" parent="fir-WizANqRblT44jurp-4" source="ivu_eYGlAMVPZVmaV1m3-11" target="ivu_eYGlAMVPZVmaV1m3-13">
          <mxGeometry relative="1" as="geometry">
            <mxPoint x="480" y="500" as="sourcePoint" />
            <Array as="points">
              <mxPoint x="510" y="480" />
              <mxPoint x="510" y="620" />
              <mxPoint x="220" y="620" />
            </Array>
          </mxGeometry>
        </mxCell>
        <mxCell id="ivu_eYGlAMVPZVmaV1m3-19" value="No" style="edgeStyle=orthogonalEdgeStyle;rounded=0;orthogonalLoop=1;jettySize=auto;html=1;entryX=0.75;entryY=0;entryDx=0;entryDy=0;exitX=0.5;exitY=0;exitDx=0;exitDy=0;fontSize=12;" edge="1" parent="fir-WizANqRblT44jurp-4" source="ivu_eYGlAMVPZVmaV1m3-17" target="ivu_eYGlAMVPZVmaV1m3-8">
          <mxGeometry relative="1" as="geometry">
            <Array as="points">
              <mxPoint x="434" y="330" />
              <mxPoint x="240" y="330" />
            </Array>
          </mxGeometry>
        </mxCell>
        <mxCell id="ivu_eYGlAMVPZVmaV1m3-17" value="Validate" style="shape=mxgraph.bpmn.shape;html=1;verticalLabelPosition=bottom;labelBackgroundColor=#ffffff;verticalAlign=top;align=center;perimeter=rhombusPerimeter;background=gateway;outlineConnect=0;outline=none;symbol=exclusiveGw;fontSize=12;spacing=-4;" vertex="1" parent="fir-WizANqRblT44jurp-4">
          <mxGeometry x="414" y="340" width="40" height="40" as="geometry" />
        </mxCell>
        <mxCell id="ivu_eYGlAMVPZVmaV1m3-18" style="edgeStyle=orthogonalEdgeStyle;rounded=0;orthogonalLoop=1;jettySize=auto;html=1;exitX=1;exitY=0.25;exitDx=0;exitDy=0;entryX=0;entryY=0.5;entryDx=0;entryDy=0;fontSize=12;" edge="1" parent="fir-WizANqRblT44jurp-4" source="ivu_eYGlAMVPZVmaV1m3-8" target="ivu_eYGlAMVPZVmaV1m3-17">
          <mxGeometry relative="1" as="geometry">
            <Array as="points">
              <mxPoint x="350" y="360" />
              <mxPoint x="350" y="360" />
            </Array>
          </mxGeometry>
        </mxCell>
        <mxCell id="ivu_eYGlAMVPZVmaV1m3-22" value="No" style="edgeStyle=orthogonalEdgeStyle;rounded=0;orthogonalLoop=1;jettySize=auto;html=1;entryX=0.75;entryY=0;entryDx=0;entryDy=0;exitX=0.5;exitY=0;exitDx=0;exitDy=0;fontSize=12;" edge="1" parent="fir-WizANqRblT44jurp-4" source="ivu_eYGlAMVPZVmaV1m3-20" target="ivu_eYGlAMVPZVmaV1m3-15">
          <mxGeometry relative="1" as="geometry">
            <Array as="points">
              <mxPoint x="240" y="410" />
            </Array>
          </mxGeometry>
        </mxCell>
        <mxCell id="ivu_eYGlAMVPZVmaV1m3-21" style="edgeStyle=orthogonalEdgeStyle;rounded=0;orthogonalLoop=1;jettySize=auto;html=1;exitX=1;exitY=0.25;exitDx=0;exitDy=0;fontSize=12;" edge="1" parent="fir-WizANqRblT44jurp-4" source="ivu_eYGlAMVPZVmaV1m3-15" target="ivu_eYGlAMVPZVmaV1m3-20">
          <mxGeometry relative="1" as="geometry" />
        </mxCell>
        <mxCell id="ivu_eYGlAMVPZVmaV1m3-25" value="No" style="edgeStyle=orthogonalEdgeStyle;rounded=0;orthogonalLoop=1;jettySize=auto;html=1;entryX=0.75;entryY=0;entryDx=0;entryDy=0;exitX=0.5;exitY=0;exitDx=0;exitDy=0;fontSize=12;" edge="1" parent="fir-WizANqRblT44jurp-4" source="ivu_eYGlAMVPZVmaV1m3-24" target="ivu_eYGlAMVPZVmaV1m3-23">
          <mxGeometry relative="1" as="geometry">
            <Array as="points">
              <mxPoint x="240" y="560" />
            </Array>
          </mxGeometry>
        </mxCell>
        <mxCell id="ivu_eYGlAMVPZVmaV1m3-26" style="edgeStyle=orthogonalEdgeStyle;rounded=0;orthogonalLoop=1;jettySize=auto;html=1;exitX=1;exitY=0.25;exitDx=0;exitDy=0;entryX=0;entryY=0.5;entryDx=0;entryDy=0;fontSize=12;" edge="1" parent="fir-WizANqRblT44jurp-4" source="ivu_eYGlAMVPZVmaV1m3-23" target="ivu_eYGlAMVPZVmaV1m3-24">
          <mxGeometry relative="1" as="geometry" />
        </mxCell>
        <mxCell id="ivu_eYGlAMVPZVmaV1m3-29" value="No" style="edgeStyle=orthogonalEdgeStyle;rounded=0;orthogonalLoop=1;jettySize=auto;html=1;exitX=1;exitY=0.5;exitDx=0;exitDy=0;entryX=0;entryY=0.5;entryDx=0;entryDy=0;fontSize=12;" edge="1" parent="fir-WizANqRblT44jurp-4" source="ivu_eYGlAMVPZVmaV1m3-13" target="ivu_eYGlAMVPZVmaV1m3-30">
          <mxGeometry relative="1" as="geometry">
            <mxPoint x="480" y="700" as="targetPoint" />
            <Array as="points">
              <mxPoint x="420" y="660" />
            </Array>
          </mxGeometry>
        </mxCell>
        <mxCell id="ivu_eYGlAMVPZVmaV1m3-33" style="edgeStyle=orthogonalEdgeStyle;rounded=0;orthogonalLoop=1;jettySize=auto;html=1;entryX=0.5;entryY=0;entryDx=0;entryDy=0;exitX=0.5;exitY=1;exitDx=0;exitDy=0;fontSize=12;" edge="1" parent="fir-WizANqRblT44jurp-4" source="ivu_eYGlAMVPZVmaV1m3-30" target="ivu_eYGlAMVPZVmaV1m3-31">
          <mxGeometry relative="1" as="geometry">
            <Array as="points">
              <mxPoint x="460" y="690" />
              <mxPoint x="220" y="690" />
            </Array>
          </mxGeometry>
        </mxCell>
        <mxCell id="ivu_eYGlAMVPZVmaV1m3-35" value="No" style="edgeStyle=orthogonalEdgeStyle;rounded=0;orthogonalLoop=1;jettySize=auto;html=1;entryX=0;entryY=0.5;entryDx=0;entryDy=0;exitX=0.75;exitY=0.75;exitDx=0;exitDy=0;exitPerimeter=0;fontSize=12;" edge="1" parent="fir-WizANqRblT44jurp-4" source="ivu_eYGlAMVPZVmaV1m3-31" target="ivu_eYGlAMVPZVmaV1m3-34">
          <mxGeometry relative="1" as="geometry">
            <mxPoint x="220" y="770" as="sourcePoint" />
            <Array as="points">
              <mxPoint x="330" y="760" />
              <mxPoint x="330" y="770" />
            </Array>
          </mxGeometry>
        </mxCell>
        <mxCell id="ivu_eYGlAMVPZVmaV1m3-38" style="edgeStyle=orthogonalEdgeStyle;rounded=0;orthogonalLoop=1;jettySize=auto;html=1;entryX=0.5;entryY=0;entryDx=0;entryDy=0;exitX=1;exitY=0.5;exitDx=0;exitDy=0;fontSize=12;" edge="1" parent="fir-WizANqRblT44jurp-4" source="ivu_eYGlAMVPZVmaV1m3-37" target="ivu_eYGlAMVPZVmaV1m3-13">
          <mxGeometry relative="1" as="geometry">
            <Array as="points">
              <mxPoint x="510" y="720" />
              <mxPoint x="510" y="620" />
              <mxPoint x="220" y="620" />
            </Array>
          </mxGeometry>
        </mxCell>
        <mxCell id="ivu_eYGlAMVPZVmaV1m3-36" value="Yes" style="edgeStyle=orthogonalEdgeStyle;rounded=0;orthogonalLoop=1;jettySize=auto;html=1;entryX=0;entryY=0.5;entryDx=0;entryDy=0;exitX=0.75;exitY=0.25;exitDx=0;exitDy=0;exitPerimeter=0;fontSize=12;" edge="1" parent="fir-WizANqRblT44jurp-4" source="ivu_eYGlAMVPZVmaV1m3-31" target="ivu_eYGlAMVPZVmaV1m3-37">
          <mxGeometry relative="1" as="geometry">
            <mxPoint x="240" y="730" as="sourcePoint" />
            <Array as="points" />
          </mxGeometry>
        </mxCell>
        <mxCell id="ivu_eYGlAMVPZVmaV1m3-42" value="Yes" style="edgeStyle=orthogonalEdgeStyle;rounded=0;orthogonalLoop=1;jettySize=auto;html=1;entryX=0;entryY=0.25;entryDx=0;entryDy=0;fontSize=12;" edge="1" parent="fir-WizANqRblT44jurp-4" source="ivu_eYGlAMVPZVmaV1m3-13" target="ivu_eYGlAMVPZVmaV1m3-39">
          <mxGeometry relative="1" as="geometry">
            <mxPoint x="100" y="670" as="targetPoint" />
            <Array as="points">
              <mxPoint x="180" y="660" />
              <mxPoint x="180" y="810" />
            </Array>
          </mxGeometry>
        </mxCell>
        <mxCell id="ivu_eYGlAMVPZVmaV1m3-5" value="Yes" style="edgeStyle=orthogonalEdgeStyle;rounded=0;orthogonalLoop=1;jettySize=auto;html=1;exitX=1;exitY=0.5;exitDx=0;exitDy=0;fontSize=12;" edge="1" parent="fir-WizANqRblT44jurp-4" source="Oj6QqCunI4aw5Zhw3vnf-6" target="Oj6QqCunI4aw5Zhw3vnf-2">
          <mxGeometry relative="1" as="geometry">
            <Array as="points">
              <mxPoint x="540" y="230" />
              <mxPoint x="540" y="1000" />
            </Array>
          </mxGeometry>
        </mxCell>
        <mxCell id="ivu_eYGlAMVPZVmaV1m3-49" style="edgeStyle=orthogonalEdgeStyle;rounded=0;orthogonalLoop=1;jettySize=auto;html=1;exitX=0.5;exitY=1;exitDx=0;exitDy=0;fontSize=12;" edge="1" parent="fir-WizANqRblT44jurp-4" source="ivu_eYGlAMVPZVmaV1m3-45">
          <mxGeometry relative="1" as="geometry">
            <mxPoint x="340" y="980" as="sourcePoint" />
            <mxPoint x="220" y="1000" as="targetPoint" />
            <Array as="points">
              <mxPoint x="330" y="1000" />
            </Array>
          </mxGeometry>
        </mxCell>
        <mxCell id="ivu_eYGlAMVPZVmaV1m3-1" value="First time &lt;br style=&quot;font-size: 12px;&quot;&gt;IdP Member?" style="shape=mxgraph.bpmn.shape;html=1;verticalLabelPosition=bottom;labelBackgroundColor=#ffffff;verticalAlign=top;align=center;perimeter=rhombusPerimeter;background=gateway;outlineConnect=0;outline=none;symbol=exclusiveGw;fontSize=12;spacing=-5;" vertex="1" parent="fir-WizANqRblT44jurp-4">
          <mxGeometry x="200" y="270" width="40" height="40" as="geometry" />
        </mxCell>
        <mxCell id="ivu_eYGlAMVPZVmaV1m3-27" value="No" style="edgeStyle=orthogonalEdgeStyle;rounded=0;orthogonalLoop=1;jettySize=auto;html=1;entryX=0;entryY=0.5;entryDx=0;entryDy=0;exitX=0;exitY=0.5;exitDx=0;exitDy=0;fontSize=12;" edge="1" parent="fir-WizANqRblT44jurp-4" source="ivu_eYGlAMVPZVmaV1m3-1" target="ivu_eYGlAMVPZVmaV1m3-51">
          <mxGeometry relative="1" as="geometry">
            <Array as="points">
              <mxPoint x="170" y="290" />
              <mxPoint x="170" y="510" />
            </Array>
          </mxGeometry>
        </mxCell>
        <mxCell id="ivu_eYGlAMVPZVmaV1m3-50" style="edgeStyle=orthogonalEdgeStyle;rounded=0;orthogonalLoop=1;jettySize=auto;html=1;exitX=0;exitY=0.25;exitDx=0;exitDy=0;fontSize=12;" edge="1" parent="fir-WizANqRblT44jurp-4" source="ivu_eYGlAMVPZVmaV1m3-6" target="ivu_eYGlAMVPZVmaV1m3-1">
          <mxGeometry relative="1" as="geometry">
            <mxPoint x="220" y="300" as="targetPoint" />
            <mxPoint x="300" y="290" as="sourcePoint" />
            <Array as="points" />
          </mxGeometry>
        </mxCell>
        <mxCell id="ivu_eYGlAMVPZVmaV1m3-55" style="edgeStyle=orthogonalEdgeStyle;rounded=0;orthogonalLoop=1;jettySize=auto;html=1;entryX=0;entryY=0.5;entryDx=0;entryDy=0;fontSize=12;" edge="1" parent="fir-WizANqRblT44jurp-4" source="ivu_eYGlAMVPZVmaV1m3-51" target="ivu_eYGlAMVPZVmaV1m3-56">
          <mxGeometry relative="1" as="geometry">
            <mxPoint x="420" y="510" as="targetPoint" />
          </mxGeometry>
        </mxCell>
        <mxCell id="ivu_eYGlAMVPZVmaV1m3-57" style="edgeStyle=orthogonalEdgeStyle;rounded=0;orthogonalLoop=1;jettySize=auto;html=1;entryX=1;entryY=0.5;entryDx=0;entryDy=0;jumpStyle=arc;fontSize=12;" edge="1" parent="fir-WizANqRblT44jurp-4" source="ivu_eYGlAMVPZVmaV1m3-56" target="Oj6QqCunI4aw5Zhw3vnf-2">
          <mxGeometry relative="1" as="geometry">
            <Array as="points">
              <mxPoint x="540" y="530" />
              <mxPoint x="540" y="1000" />
              <mxPoint x="220" y="1000" />
            </Array>
          </mxGeometry>
        </mxCell>
        <mxCell id="ivu_eYGlAMVPZVmaV1m3-61" style="edgeStyle=orthogonalEdgeStyle;rounded=0;jumpStyle=arc;orthogonalLoop=1;jettySize=auto;html=1;entryX=1;entryY=0.5;entryDx=0;entryDy=0;endArrow=none;endFill=0;strokeColor=#666666;dashed=1;fontSize=12;" edge="1" parent="fir-WizANqRblT44jurp-4" source="ivu_eYGlAMVPZVmaV1m3-60" target="ivu_eYGlAMVPZVmaV1m3-30">
          <mxGeometry relative="1" as="geometry" />
        </mxCell>
        <mxCell id="ivu_eYGlAMVPZVmaV1m3-60" value="As most IdPs only accept two (Success/Error), the Alternate is to redirect to Sys Error page, and if missing Permissions, show Sys Options" style="shape=note;whiteSpace=wrap;html=1;size=14;verticalAlign=top;align=left;spacingTop=-6;fontSize=12;spacing=2;spacingRight=10;" vertex="1" parent="fir-WizANqRblT44jurp-4">
          <mxGeometry x="560" y="600" width="120" height="120" as="geometry" />
        </mxCell>
        <mxCell id="ivu_eYGlAMVPZVmaV1m3-64" value="No" style="edgeStyle=orthogonalEdgeStyle;rounded=0;jumpStyle=arc;orthogonalLoop=1;jettySize=auto;html=1;endArrow=classic;endFill=1;strokeColor=#666666;exitX=0.75;exitY=0.75;exitDx=0;exitDy=0;exitPerimeter=0;fontSize=12;" edge="1" parent="fir-WizANqRblT44jurp-4" source="ivu_eYGlAMVPZVmaV1m3-62">
          <mxGeometry relative="1" as="geometry">
            <mxPoint x="500" y="760" as="targetPoint" />
            <Array as="points">
              <mxPoint x="510" y="850" />
              <mxPoint x="510" y="760" />
            </Array>
          </mxGeometry>
        </mxCell>
        <mxCell id="ivu_eYGlAMVPZVmaV1m3-43" style="edgeStyle=orthogonalEdgeStyle;rounded=0;orthogonalLoop=1;jettySize=auto;html=1;entryX=0.75;entryY=0.25;entryDx=0;entryDy=0;exitX=0;exitY=0.75;exitDx=0;exitDy=0;entryPerimeter=0;fontSize=12;" edge="1" parent="fir-WizANqRblT44jurp-4" source="ivu_eYGlAMVPZVmaV1m3-39" target="ivu_eYGlAMVPZVmaV1m3-62">
          <mxGeometry relative="1" as="geometry">
            <mxPoint x="230" y="880" as="targetPoint" />
            <Array as="points">
              <mxPoint x="380" y="830" />
            </Array>
          </mxGeometry>
        </mxCell>
        <mxCell id="ivu_eYGlAMVPZVmaV1m3-16" style="edgeStyle=orthogonalEdgeStyle;rounded=0;orthogonalLoop=1;jettySize=auto;html=1;fontSize=12;exitX=1;exitY=0.5;exitDx=0;exitDy=0;" edge="1" parent="fir-WizANqRblT44jurp-4" source="ivu_eYGlAMVPZVmaV1m3-17" target="ivu_eYGlAMVPZVmaV1m3-15">
          <mxGeometry relative="1" as="geometry" />
        </mxCell>
        <mxCell id="ivu_eYGlAMVPZVmaV1m3-28" style="edgeStyle=orthogonalEdgeStyle;rounded=0;orthogonalLoop=1;jettySize=auto;html=1;exitX=0.5;exitY=1;exitDx=0;exitDy=0;fontSize=12;" edge="1" parent="fir-WizANqRblT44jurp-4" source="ivu_eYGlAMVPZVmaV1m3-24" target="ivu_eYGlAMVPZVmaV1m3-13">
          <mxGeometry relative="1" as="geometry">
            <Array as="points">
              <mxPoint x="440" y="620" />
              <mxPoint x="220" y="620" />
            </Array>
          </mxGeometry>
        </mxCell>
        <mxCell id="ByP7jdEEXIhr7Hw9_hIr-0" value="Title/Diagram" parent="fir-WizANqRblT44jurp-0" />
        <mxCell id="ByP7jdEEXIhr7Hw9_hIr-1" value="&lt;font style=&quot;font-size: 12px ; font-weight: normal&quot;&gt;&lt;i&gt;Diagram: Base System Logical Module - Sequences - Credentials - SignIn&lt;/i&gt;&lt;/font&gt;" style="text;strokeColor=none;fillColor=none;html=1;fontSize=12;fontStyle=1;verticalAlign=middle;align=left;shadow=0;glass=0;comic=0;opacity=30;fontColor=#808080;" vertex="1" parent="ByP7jdEEXIhr7Hw9_hIr-0">
          <mxGeometry x="120" y="1020" width="520" height="20" as="geometry" />
        </mxCell>
        <mxCell id="fir-WizANqRblT44jurp-2" value="About" parent="fir-WizANqRblT44jurp-0" />
      </root>
    </mxGraphModel>
  </diagram>
</mxfile>
